<?xml version="1.0" standalone="no"?>
<!DOCTYPE svg PUBLIC "-//W3C//DTD SVG 20010904//EN"
 "http://www.w3.org/TR/2001/REC-SVG-20010904/DTD/svg10.dtd">
<svg version="1.0" xmlns="http://www.w3.org/2000/svg"
 width="1024.000000pt" height="1024.000000pt" viewBox="0 0 1024.000000 1024.000000"
 preserveAspectRatio="xMidYMid meet">

<g transform="translate(0.000000,1024.000000) scale(0.100000,-0.100000)"
fill="#000000" stroke="none">
<path d="M4406 8749 c-137 -18 -347 -81 -489 -148 -80 -38 -86 -39 -222 -44
-159 -6 -275 -32 -414 -91 -268 -115 -442 -232 -626 -421 l-91 -93 -105 -25
c-139 -34 -251 -76 -368 -138 -290 -154 -660 -462 -820 -683 -117 -161 -206
-361 -227 -509 -6 -47 -8 -49 -90 -103 -243 -160 -433 -466 -509 -819 -26
-121 -32 -361 -10 -476 41 -227 149 -425 323 -597 l84 -83 9 -108 c13 -165 58
-344 122 -481 101 -218 310 -406 522 -469 22 -7 49 -16 60 -21 96 -40 442 -50
577 -16 76 19 79 19 115 2 133 -65 365 -112 498 -101 148 12 321 59 456 125
74 35 238 131 245 141 14 24 33 5 44 -43 81 -358 371 -674 815 -887 198 -96
239 -105 445 -105 207 0 332 24 525 99 32 13 63 21 67 19 5 -3 24 -28 43 -56
46 -69 164 -188 250 -252 95 -72 205 -128 318 -162 49 -15 64 -26 88 -60 16
-24 29 -46 29 -49 0 -4 8 -19 19 -33 26 -39 69 -118 149 -277 39 -77 81 -150
94 -162 80 -75 598 -102 733 -37 68 32 71 120 10 308 -20 60 -33 111 -31 114
3 2 67 -5 143 -18 493 -80 957 6 1313 243 171 113 339 269 436 403 10 14 24
31 29 38 25 26 107 167 139 239 57 124 103 273 121 392 10 61 19 119 21 130 3
11 30 38 62 60 81 57 217 196 284 290 259 368 334 900 185 1320 -22 63 -85
184 -128 247 l-38 56 11 69 c50 320 -116 772 -378 1030 -98 95 -237 185 -347
222 l-49 17 -24 93 c-73 280 -215 538 -400 725 -211 212 -471 331 -753 342
l-105 4 -45 52 c-167 194 -352 349 -535 450 -84 47 -256 128 -269 128 -7 0
-17 4 -23 9 -13 12 -144 57 -234 81 -199 53 -328 71 -565 77 -241 6 -294 1
-477 -39 l-98 -21 -117 36 c-132 40 -146 43 -258 62 -90 16 -428 18 -539 4z
m604 -243 c47 -10 129 -31 182 -48 l97 -31 -17 -31 c-23 -42 -150 -168 -201
-201 -51 -31 -45 -50 13 -41 104 17 181 74 277 206 28 39 63 76 76 81 105 40
485 52 695 23 167 -23 338 -65 443 -109 17 -7 41 -16 55 -20 90 -27 324 -160
450 -258 73 -56 260 -239 260 -255 0 -6 -33 -26 -72 -46 -148 -73 -253 -182
-295 -305 l-22 -66 -66 -7 c-259 -26 -464 -115 -616 -267 -96 -96 -148 -180
-186 -299 -31 -100 -29 -232 6 -300 12 -24 27 -42 33 -40 7 3 28 56 48 119 50
156 84 233 135 305 142 199 388 320 717 354 198 20 434 -19 558 -91 154 -91
231 -206 246 -369 l7 -70 -90 6 c-142 10 -276 -21 -377 -87 -45 -30 -104 -95
-94 -104 2 -2 40 8 84 24 114 40 203 55 298 48 102 -8 179 -34 266 -92 147
-98 240 -252 296 -490 26 -111 26 -401 1 -528 -58 -288 -199 -553 -399 -751
l-111 -109 50 5 c120 11 266 119 376 276 28 39 55 72 59 72 14 0 56 -99 69
-160 19 -92 7 -271 -25 -365 -65 -189 -224 -383 -381 -462 -74 -38 -215 -83
-313 -99 -148 -26 -372 -8 -539 42 -34 10 -29 -16 10 -53 89 -85 280 -142 482
-143 73 0 210 21 258 39 50 19 63 14 77 -31 14 -50 63 -141 97 -181 13 -16 21
-33 18 -37 -7 -12 -90 -35 -211 -59 -113 -22 -338 -47 -519 -56 -164 -8 -457
-40 -650 -72 -180 -28 -232 -27 -315 10 -146 64 -184 79 -256 97 -132 34 -305
25 -364 -20 l-24 -18 49 -7 c60 -8 158 -31 200 -47 60 -23 175 -81 175 -89 0
-4 -37 -30 -82 -57 -46 -28 -132 -80 -193 -117 -246 -149 -524 -267 -760 -322
-152 -35 -319 -37 -423 -5 -216 68 -507 249 -643 401 -117 132 -174 229 -214
365 -81 282 -14 552 203 816 176 213 397 367 677 472 338 126 658 182 983 171
78 -2 132 0 132 5 0 5 -28 22 -62 37 l-63 27 30 24 c99 80 433 255 605 317
204 74 305 92 505 91 192 0 247 -9 498 -81 87 -25 164 -42 172 -39 44 17 -59
139 -166 195 -35 19 -65 35 -67 36 -5 5 58 127 91 175 49 72 178 191 261 240
65 38 73 45 52 48 -44 6 -148 -26 -246 -75 -78 -39 -110 -63 -185 -138 -61
-60 -99 -108 -115 -143 l-25 -53 -55 6 c-30 4 -97 10 -148 15 -52 5 -95 10
-97 12 -3 2 7 32 20 65 14 34 30 85 35 114 21 111 5 296 -24 286 -6 -2 -34
-59 -62 -128 -101 -248 -186 -370 -269 -384 -60 -10 -259 -64 -299 -80 -20 -8
-39 -15 -44 -15 -5 0 -9 46 -9 103 1 116 -21 191 -98 347 -92 185 -115 271
-122 455 -6 144 6 226 42 299 18 35 19 46 3 46 -25 0 -79 -75 -110 -153 -32
-80 -32 -86 -33 -232 0 -88 5 -164 12 -185 102 -307 123 -384 129 -461 7 -96
-9 -180 -53 -266 -33 -66 -64 -96 -188 -178 -150 -100 -243 -142 -344 -154
-46 -6 -87 -8 -92 -6 -4 3 -17 34 -28 68 -10 34 -40 109 -65 166 -118 266
-177 549 -179 856 -2 228 26 379 97 524 122 252 348 440 618 516 56 16 59 18
95 83 66 122 185 275 308 398 213 214 391 304 602 304 75 0 75 11 0 36 -66 22
-190 22 -277 -1 -123 -32 -310 -134 -430 -236 -43 -37 -49 -39 -76 -28 -45 18
-253 23 -341 9 -119 -19 -239 -57 -336 -106 -49 -24 -90 -44 -92 -44 -1 0 -8
30 -15 68 -31 181 -163 318 -355 367 -149 38 -278 1 -323 -91 -24 -52 -9 -59
77 -38 59 14 83 15 136 6 73 -12 156 -48 197 -85 39 -34 95 -131 103 -177 11
-64 1 -77 -63 -90 -106 -21 -263 -70 -332 -105 l-69 -35 -6 48 c-16 122 -28
163 -66 241 -31 63 -59 102 -110 152 -113 111 -232 155 -403 146 -163 -8 -237
-42 -99 -46 119 -3 208 -34 301 -105 60 -46 131 -146 157 -221 20 -58 31 -214
21 -309 -7 -61 -12 -72 -77 -158 -84 -113 -130 -205 -160 -318 -12 -47 -24
-86 -25 -88 -1 -2 -28 8 -59 23 -31 14 -96 38 -144 52 -76 23 -103 26 -236 27
-160 0 -256 -17 -362 -65 -65 -29 -170 -100 -213 -143 -19 -19 -38 -36 -41
-36 -4 0 -14 21 -23 48 -92 251 -201 374 -393 438 -68 23 -90 26 -173 22 -80
-3 -105 -8 -160 -34 -125 -59 -210 -173 -210 -282 0 -51 12 -92 28 -92 5 0 14
17 21 38 73 207 293 298 489 200 102 -51 161 -134 202 -283 12 -44 38 -119 57
-167 l35 -87 -26 -73 c-27 -78 -46 -205 -46 -303 l0 -60 -73 -1 c-89 -1 -160
-17 -252 -57 -230 -101 -387 -279 -451 -512 -21 -76 -18 -264 6 -357 47 -187
182 -392 349 -531 39 -33 34 -44 -37 -78 -164 -78 -291 -104 -456 -96 -207 10
-334 63 -461 191 -141 141 -211 323 -209 536 3 221 95 385 263 467 52 26 65
28 177 28 l121 0 -32 22 c-103 70 -269 82 -381 28 -117 -57 -226 -199 -277
-359 -19 -60 -22 -93 -21 -211 0 -155 12 -212 70 -353 19 -45 34 -87 34 -92 0
-6 -11 -10 -25 -10 -14 0 -42 -7 -62 -15 l-37 -16 -39 38 c-96 93 -197 254
-241 385 -38 113 -48 338 -22 465 44 205 144 427 255 561 49 59 165 146 227
171 72 28 169 44 224 36 74 -10 75 -14 35 -84 -51 -92 -66 -153 -63 -260 2
-50 7 -91 12 -91 4 -1 19 29 32 66 34 98 80 169 165 254 90 90 196 149 314
175 61 14 109 16 233 13 175 -6 246 -23 349 -85 31 -18 58 -32 60 -29 12 12
-15 63 -56 105 -58 60 -188 125 -291 147 -101 22 -275 22 -365 -1 -60 -15
-159 -59 -231 -105 -19 -11 -25 -10 -50 7 -46 32 -141 63 -194 63 -32 0 -50 4
-50 12 0 6 10 46 21 87 67 238 278 499 604 746 378 287 635 372 973 320 107
-16 221 -51 228 -70 3 -7 -4 -31 -15 -53 -36 -71 -62 -185 -59 -259 l3 -68 34
65 c108 209 255 370 464 505 42 28 77 53 77 58 0 4 -30 7 -66 7 -82 0 -200
-38 -266 -86 -55 -39 -69 -41 -112 -15 -46 29 -189 68 -278 76 -54 5 -78 11
-78 21 0 18 192 170 287 226 185 110 379 189 509 208 38 5 118 10 177 10 107
0 109 0 200 44 155 74 321 126 482 150 75 11 473 -2 555 -18z m690 -810 c0 -3
-29 -42 -64 -89 -34 -46 -76 -107 -91 -135 -26 -49 -30 -52 -99 -72 -113 -33
-184 -67 -286 -135 -216 -144 -353 -343 -417 -607 -28 -114 -25 -436 5 -583
29 -142 77 -310 159 -560 69 -211 88 -320 62 -342 -8 -6 -63 -23 -124 -38
-138 -34 -289 -84 -428 -142 -69 -29 -115 -43 -130 -39 -38 9 -139 79 -191
132 -132 134 -211 263 -361 589 -8 17 -37 102 -66 190 -28 88 -53 167 -56 175
-13 36 -36 -60 -41 -165 -13 -306 167 -728 412 -969 l91 -89 -60 -51 c-33 -27
-95 -86 -138 -129 -73 -73 -82 -79 -135 -88 -97 -15 -381 -22 -512 -11 -331
28 -591 124 -810 299 -98 78 -161 156 -220 273 -86 172 -94 340 -22 500 25 55
42 78 113 150 64 64 212 145 296 160 90 16 211 -9 231 -47 5 -10 17 -47 27
-83 24 -89 87 -220 146 -301 46 -63 158 -174 166 -165 3 2 -8 30 -23 63 -91
196 -111 251 -159 443 -45 177 -59 291 -52 425 13 277 157 458 432 541 91 28
306 25 395 -5 77 -26 191 -91 217 -125 13 -16 24 -57 32 -122 23 -173 60 -335
107 -476 26 -76 51 -138 56 -138 6 0 7 8 4 17 -4 10 -16 96 -27 193 -17 141
-20 213 -16 370 8 271 36 411 119 580 123 252 485 449 826 450 58 0 80 5 110
23 85 53 212 104 327 130 26 6 195 8 195 3z m2110 -36 c289 -69 559 -314 702
-635 47 -107 55 -128 88 -246 l33 -116 -66 -134 c-56 -112 -78 -169 -64 -169
1 0 22 6 47 14 68 21 119 46 186 93 34 24 68 43 75 43 27 0 124 -51 190 -101
185 -137 337 -402 383 -668 33 -195 12 -310 -75 -405 -84 -93 -180 -137 -294
-137 -74 0 -202 24 -247 47 -54 28 -62 13 -23 -44 14 -20 25 -39 25 -42 0 -3
-15 -13 -32 -23 -67 -35 -121 -47 -208 -47 -80 0 -94 3 -151 33 -36 18 -70 44
-78 59 -15 25 -13 34 17 125 32 99 65 226 76 294 5 29 12 38 32 43 98 25 198
111 245 210 24 51 29 74 29 139 0 42 -4 77 -9 77 -4 0 -24 -24 -44 -54 -69
-104 -148 -176 -210 -192 -26 -6 -27 -5 -27 38 0 72 -28 249 -51 323 -63 205
-172 360 -320 457 l-79 51 0 47 c0 80 -19 151 -62 239 -51 104 -158 216 -267
279 -118 69 -362 142 -475 142 -25 0 -48 5 -51 10 -10 16 31 74 86 124 139
125 399 178 619 126z m1703 -2527 c80 -154 113 -328 104 -553 -15 -400 -199
-740 -512 -948 -154 -102 -407 -152 -620 -122 -212 30 -332 79 -429 176 -57
58 -116 183 -98 210 4 6 28 24 53 42 107 73 244 243 302 377 80 181 105 370
72 541 -8 43 -13 79 -11 82 3 2 28 -1 56 -7 149 -32 327 3 438 86 32 24 37 25
90 14 119 -24 218 -9 337 49 44 21 98 57 120 79 22 22 45 40 51 41 6 0 27 -30
47 -67z m-8253 -606 c80 -78 161 -131 253 -165 269 -101 630 -70 875 74 42 25
79 49 82 52 3 4 14 15 26 25 20 17 23 16 90 -17 221 -108 514 -168 842 -170
94 0 172 -5 172 -9 0 -5 -7 -21 -15 -35 -59 -107 -106 -251 -120 -374 -7 -64
-6 -63 -106 -120 -151 -85 -237 -127 -330 -161 -155 -58 -223 -70 -373 -65
-143 5 -201 20 -329 84 -79 40 -96 41 -197 13 -116 -32 -326 -37 -453 -11
-285 59 -470 245 -552 554 -35 130 -43 181 -46 273 l-2 80 44 22 c24 13 49 23
54 23 6 0 44 -33 85 -73z m7120 -1166 c260 -35 443 -36 598 -5 69 14 18 -48
-78 -94 -51 -25 -65 -27 -175 -26 -104 0 -139 6 -265 38 -236 60 -414 65 -567
18 -121 -38 -336 -173 -434 -274 -84 -86 -114 -152 -89 -198 10 -18 19 -19
133 -13 179 9 317 -9 742 -93 209 -41 387 -77 395 -80 16 -6 -62 -82 -168
-166 l-54 -42 -86 13 c-158 23 -537 136 -732 218 -204 87 -317 160 -349 226
-26 54 -27 128 -2 182 26 57 112 147 189 199 65 42 72 44 212 64 140 20 354
40 490 45 36 2 72 4 80 5 8 1 80 -7 160 -17z m-1080 -96 c0 -3 -24 -34 -53
-68 -128 -152 -135 -299 -18 -416 49 -49 141 -111 230 -156 175 -88 483 -195
697 -242 68 -15 121 -30 117 -34 -19 -18 -137 -70 -233 -104 -126 -44 -141
-43 -295 18 -157 63 -243 108 -380 201 -285 192 -462 433 -494 672 -9 67 -15
63 139 88 116 19 271 43 283 45 4 1 7 -1 7 -4z m1141 -64 c86 -22 191 -42 235
-46 91 -7 209 12 273 45 23 11 41 16 41 10 0 -33 -82 -234 -101 -245 -13 -9
-158 20 -359 70 -249 63 -356 78 -514 73 -117 -4 -141 -8 -218 -37 -59 -22
-89 -39 -93 -52 -15 -46 11 -48 149 -10 59 15 108 21 191 21 124 0 203 -13
435 -70 85 -21 201 -46 258 -56 59 -10 102 -22 102 -29 0 -11 -60 -100 -107
-158 l-21 -28 -64 15 c-35 8 -112 26 -173 40 -60 14 -160 37 -221 51 -323 74
-505 99 -679 93 -82 -2 -125 0 -125 6 0 21 141 146 231 205 100 66 210 115
303 137 107 24 274 12 457 -35z m-1657 -38 c3 -16 8 -46 12 -68 15 -85 85
-244 154 -345 72 -106 207 -236 355 -342 72 -51 256 -151 363 -196 28 -13 52
-27 52 -32 0 -14 -268 -16 -378 -4 -53 6 -57 10 -176 125 -192 185 -363 419
-422 577 -32 84 -64 216 -64 264 0 35 2 37 38 41 20 2 42 4 49 5 6 1 14 -10
17 -25z m-180 -19 c3 -9 6 -28 6 -43 0 -101 91 -329 193 -482 54 -80 239 -303
300 -362 17 -15 27 -31 23 -34 -3 -4 -32 1 -63 11 -48 15 -72 33 -161 120 -57
55 -133 137 -169 181 -115 144 -207 367 -220 537 -6 75 -5 76 18 81 48 9 67 7
73 -9z m-184 -18 c0 -17 35 -185 51 -241 47 -172 156 -369 273 -493 27 -29 46
-55 43 -58 -6 -7 -120 55 -125 68 -2 4 -8 8 -14 8 -16 0 -132 86 -184 138
-123 121 -184 210 -233 337 -35 95 -65 205 -56 213 12 13 245 39 245 28z
m-413 -187 c24 -97 70 -208 115 -276 15 -23 28 -44 28 -48 0 -19 119 -161 193
-231 118 -112 259 -202 432 -276 40 -17 40 -18 62 -110 13 -51 35 -123 49
-160 15 -38 25 -71 21 -74 -9 -10 -265 -6 -351 6 -43 5 -84 14 -91 20 -7 6
-20 30 -29 54 -10 25 -42 90 -72 146 -29 56 -54 103 -54 105 0 5 -139 239
-149 251 -5 6 -49 23 -97 39 -49 15 -118 42 -154 60 -82 41 -212 137 -267 197
-40 44 -98 128 -91 132 2 1 92 55 201 120 108 65 200 122 203 127 16 26 32 1
51 -82z"/>
<path d="M7209 4853 c-9 -22 -185 -145 -280 -196 -268 -142 -555 -205 -808
-177 -154 17 -229 48 -318 133 -24 23 -46 38 -49 34 -4 -3 -6 -31 -5 -62 1
-52 16 -93 54 -148 10 -16 8 -22 -18 -43 -49 -41 -171 -98 -315 -149 -163 -57
-332 -137 -423 -199 -65 -44 -70 -46 -140 -46 -207 0 -436 113 -553 273 -25
34 -50 63 -55 65 -14 6 32 -99 68 -153 89 -136 253 -258 393 -295 88 -22 83
-15 55 -71 -85 -166 -63 -360 49 -441 71 -51 123 -50 86 2 -82 115 -83 233 -4
357 101 158 227 234 529 318 288 80 392 134 483 249 22 29 23 29 79 17 90 -18
304 -14 408 8 150 32 312 95 451 177 l32 18 63 -58 c82 -74 199 -131 321 -157
150 -30 167 -22 66 31 -119 63 -219 143 -290 232 l-30 38 54 59 c69 77 125
168 111 182 -6 6 -12 7 -14 2z"/>
<path d="M4560 3613 c-35 -27 -77 -59 -94 -71 -57 -44 -145 -79 -223 -91 -83
-13 -134 -7 -284 35 -56 15 -70 16 -83 5 -21 -18 -20 -34 4 -81 25 -49 97
-103 170 -127 83 -27 263 -24 349 6 162 57 301 200 301 311 0 76 -51 80 -140
13z"/>
<path d="M4692 3298 c-7 -7 -12 -30 -12 -52 0 -77 116 -155 255 -170 61 -7
162 7 179 24 11 11 6 13 -83 30 -86 16 -148 48 -227 120 -66 60 -90 70 -112
48z"/>
<path d="M9128 4701 c-34 -146 -121 -285 -258 -414 -65 -61 -101 -85 -212
-140 -73 -37 -150 -69 -171 -73 -20 -3 -40 -10 -43 -15 -8 -13 49 -10 141 6
115 21 109 23 129 -45 36 -118 107 -191 210 -212 41 -9 61 -8 96 3 24 8 45 19
47 25 2 6 -21 23 -52 38 -70 35 -130 96 -149 154 -28 80 -23 96 39 138 99 65
201 212 239 343 17 57 23 246 8 255 -4 3 -15 -26 -24 -63z"/>
</g>
</svg>
