<?xml version="1.0" encoding="utf-8"?>
<!DOCTYPE svg PUBLIC "-//W3C//DTD SVG 20010904//EN" "http://www.w3.org/TR/2001/REC-SVG-20010904/DTD/svg10.dtd">
<svg version="1.0" xmlns="http://www.w3.org/2000/svg" width="1026pt" height="1026pt" viewBox="0 0 1026 1026" style="" preserveAspectRatio="xMidYMid meet">
<g fill="#0D0F0CFF" stroke="#0D0F0CFF">
<path d="M 481.000 84.689 C 448.669 87.125 411.088 94.454 381.000 104.191 C 322.217 123.213 271.531 152.616 224.578 194.930 C 182.716 232.655 144.393 287.008 121.115 341.668 C 73.187 454.212 74.674 583.007 125.164 692.500 C 166.653 782.471 240.547 857.528 329.500 900.052 C 429.682 947.944 544.069 954.577 650.500 918.666 C 735.814 889.880 806.916 836.596 861.663 760.418 C 914.212 687.300 942.968 590.303 939.610 497.500 C 938.330 462.144 934.812 437.193 926.496 404.500 C 914.330 356.674 897.468 318.251 870.542 277.000 C 838.630 228.110 799.482 188.126 752.429 156.364 C 716.729 132.266 671.586 111.460 630.173 100.017 C 604.103 92.814 572.881 87.282 545.696 85.051 C 534.061 84.096 491.991 83.860 481.000 84.689 M 557.500 104.533 C 631.408 112.974 704.511 141.987 761.000 185.298 C 785.076 203.757 816.714 234.621 833.988 256.500 C 867.072 298.404 894.698 353.994 908.533 406.500 C 915.147 431.603 918.258 450.122 920.538 477.977 C 923.273 511.369 922.363 535.437 916.930 573.500 C 912.514 604.440 907.054 626.864 898.756 648.149 L 895.500 656.500 894.869 630.500 C 893.941 592.264 891.138 572.120 883.620 549.653 C 872.482 516.367 849.176 488.981 818.387 473.000 C 808.885 468.068 808.942 468.130 805.880 459.500 C 804.270 454.963 802.330 452.100 797.922 447.759 L 792.092 442.018 799.732 431.759 C 830.213 390.824 840.499 368.307 842.578 337.962 C 844.183 314.548 835.149 291.520 819.081 278.068 C 816.105 275.576 813.555 272.343 812.516 269.747 C 804.550 249.824 782.460 232.091 753.660 222.501 C 738.614 217.491 726.959 215.690 709.500 215.678 C 685.866 215.661 665.296 220.207 641.827 230.632 C 636.147 233.155 628.829 235.625 625.564 236.121 C 611.692 238.228 601.234 243.139 592.803 251.503 C 577.445 266.739 576.319 289.319 590.224 303.224 L 594.102 307.102 592.903 316.993 C 591.988 324.548 591.976 329.269 592.852 336.978 C 595.638 361.480 594.301 365.747 579.453 379.738 C 571.015 387.688 570.000 389.020 570.000 392.142 C 570.000 397.061 575.242 402.828 583.799 407.325 L 590.699 410.951 591.296 419.403 C 591.892 427.854 593.118 431.329 595.978 432.680 C 596.815 433.075 603.206 433.647 610.179 433.949 C 620.962 434.418 623.280 434.814 625.679 436.599 C 631.635 441.030 628.700 447.913 619.961 450.009 C 614.257 451.378 608.000 456.504 608.000 459.808 C 608.000 462.194 612.388 474.804 615.048 480.063 C 617.877 485.657 623.915 490.892 629.432 492.533 C 636.011 494.490 648.452 494.326 665.500 492.058 L 679.500 490.195 682.223 493.348 C 683.721 495.081 684.958 497.109 684.973 497.853 C 684.988 498.597 682.939 501.499 680.419 504.301 C 674.707 510.655 672.000 515.867 672.000 520.515 C 672.000 523.077 670.818 525.850 667.886 530.168 C 662.581 537.980 659.072 545.804 652.527 564.411 C 646.538 581.436 641.204 595.135 640.130 596.246 C 639.733 596.656 634.256 590.581 627.958 582.746 C 613.749 565.069 607.003 558.000 604.342 558.000 C 602.438 558.000 602.257 557.224 601.710 546.750 C 601.320 539.283 600.139 531.633 598.198 524.000 C 596.589 517.675 594.033 507.325 592.519 501.000 C 588.302 483.396 584.665 478.000 577.013 478.000 C 569.587 478.000 563.321 484.767 562.136 494.067 L 561.500 499.060 553.725 489.623 C 540.225 473.238 525.142 458.536 519.759 456.515 C 511.850 453.546 503.762 456.332 501.011 462.974 C 500.213 464.900 499.038 466.000 497.779 466.000 C 494.260 466.000 489.259 472.087 488.474 477.326 C 487.963 480.733 486.866 482.934 484.500 485.300 C 482.103 487.697 480.909 490.121 480.024 494.387 C 477.873 504.744 479.099 507.688 492.593 524.587 C 502.350 536.807 504.928 540.995 509.573 552.175 C 511.459 556.715 514.650 562.921 516.665 565.965 C 524.362 577.597 539.757 591.351 550.298 596.014 L 554.828 598.018 551.914 600.932 C 548.138 604.708 548.041 609.298 551.623 614.610 C 553.065 616.750 558.567 624.255 563.849 631.288 L 573.452 644.076 580.691 643.788 L 587.930 643.500 580.989 634.000 C 569.410 618.152 564.785 611.004 565.278 609.718 C 565.537 609.044 567.492 607.887 569.624 607.146 C 581.397 603.056 596.864 590.419 602.783 580.056 L 605.710 574.931 608.422 578.486 C 609.913 580.441 616.616 588.691 623.317 596.818 C 630.017 604.945 641.276 618.619 648.337 627.204 C 655.397 635.788 662.045 643.040 663.111 643.319 C 664.176 643.597 666.653 643.382 668.615 642.841 C 671.811 641.958 672.113 641.586 671.528 639.257 C 671.170 637.828 665.792 630.343 659.579 622.624 L 648.281 608.588 655.113 591.865 C 658.870 582.667 663.701 570.048 665.848 563.821 C 669.965 551.881 674.787 540.769 677.219 537.613 C 678.592 535.832 678.926 536.055 683.215 541.613 C 689.661 549.968 691.415 551.364 694.503 550.589 C 695.923 550.232 697.342 549.271 697.656 548.454 C 697.974 547.626 695.796 542.874 692.743 537.733 C 682.003 519.649 681.876 518.861 688.589 512.148 L 693.178 507.559 698.550 513.240 L 703.923 518.921 701.714 523.710 C 699.746 527.981 699.506 530.141 699.503 543.642 C 699.500 557.129 699.708 559.013 701.405 560.892 C 703.741 563.477 704.172 563.491 707.139 561.088 C 709.379 559.275 709.505 558.544 709.592 546.838 C 709.653 538.608 710.157 533.385 711.104 531.151 L 712.524 527.801 724.542 540.152 C 731.153 546.944 738.029 554.635 739.823 557.243 C 743.376 562.406 746.516 563.840 750.157 561.960 C 754.663 559.633 757.237 556.399 765.246 543.000 C 778.617 520.632 800.027 489.906 806.024 484.478 C 808.125 482.577 808.200 482.587 813.751 485.529 C 827.011 492.557 842.652 506.033 851.436 518.000 C 868.268 540.931 876.890 565.713 879.963 600.000 C 881.176 613.539 881.241 661.442 880.073 681.658 L 879.255 695.817 872.457 708.158 C 851.651 745.930 828.014 777.364 798.360 806.693 C 754.110 850.461 704.627 881.050 645.117 901.425 C 617.087 911.021 590.667 916.887 555.000 921.432 C 532.023 924.360 492.592 923.942 464.420 920.472 C 373.341 909.254 293.848 870.843 227.641 806.061 C 199.505 778.529 177.609 749.880 155.143 711.202 L 148.000 698.903 148.003 691.202 C 148.005 684.049 149.865 659.669 153.548 618.500 C 159.354 553.608 166.317 519.323 178.731 494.500 C 186.456 479.052 197.859 465.263 211.500 454.876 C 218.125 449.831 226.058 444.676 226.425 445.178 C 226.554 445.355 227.901 449.100 229.418 453.500 C 232.537 462.547 242.625 482.489 249.244 492.689 C 264.489 516.186 284.476 533.773 309.293 545.529 C 315.933 548.674 318.997 550.660 318.991 551.814 C 318.987 552.741 318.706 555.801 318.368 558.613 L 317.754 563.727 313.620 563.261 C 311.064 562.972 306.818 563.591 302.493 564.882 C 298.647 566.031 288.319 568.114 279.542 569.512 C 270.765 570.909 260.938 572.739 257.705 573.577 C 253.020 574.791 251.524 574.850 250.340 573.867 C 247.852 571.802 244.915 565.165 240.028 550.557 C 236.487 539.975 234.745 536.152 232.801 534.701 C 229.915 532.546 226.424 533.077 225.569 535.801 C 224.731 538.472 232.489 567.083 235.935 574.027 C 237.644 577.472 238.920 580.365 238.771 580.455 C 238.622 580.546 235.350 582.460 231.500 584.709 C 219.803 591.543 209.000 602.400 209.000 607.321 C 209.000 609.930 211.790 613.000 214.159 613.000 C 215.176 613.000 219.847 609.435 224.539 605.077 C 238.662 591.961 254.787 585.264 282.379 581.054 C 289.861 579.913 298.555 578.309 301.701 577.490 C 310.376 575.230 313.274 575.501 315.193 578.750 C 318.195 583.835 320.061 593.729 320.227 605.445 L 320.388 616.849 324.828 618.092 C 329.135 619.298 335.578 624.447 337.712 628.388 C 338.709 630.230 338.899 630.225 345.617 628.180 C 354.061 625.608 362.992 620.357 369.109 614.367 L 373.718 609.853 379.548 615.965 C 386.515 623.270 396.215 628.440 406.492 630.329 L 413.483 631.615 413.204 635.557 C 413.050 637.726 412.680 640.738 412.383 642.250 L 411.841 645.000 417.808 645.000 L 423.775 645.000 425.130 634.750 C 425.910 628.849 426.485 615.377 426.485 603.000 C 426.485 585.328 426.165 580.368 424.686 575.139 C 423.697 571.641 423.108 568.559 423.377 568.290 C 424.122 567.545 430.635 569.790 439.329 573.789 C 445.342 576.554 447.546 577.147 448.829 576.343 C 451.092 574.925 451.476 571.375 449.666 568.613 C 447.711 565.630 436.356 559.744 427.250 556.994 C 423.263 555.790 420.000 554.447 420.000 554.009 C 420.000 553.572 419.335 546.908 418.521 539.201 C 417.108 525.813 414.652 516.327 411.355 511.527 C 410.610 510.443 410.000 507.472 410.000 504.927 C 410.000 498.991 408.462 494.412 404.958 489.910 C 403.421 487.936 401.665 484.469 401.055 482.206 C 399.809 477.576 395.993 472.574 391.730 469.982 L 388.874 468.245 396.025 464.123 C 399.958 461.855 403.731 460.000 404.410 460.000 C 406.458 460.000 420.142 469.811 425.792 475.330 C 436.186 485.483 447.893 505.937 454.423 525.351 C 462.095 548.160 471.980 599.141 475.489 634.000 C 476.532 644.357 476.244 644.000 483.567 644.000 C 488.127 644.000 490.000 643.627 490.000 642.720 C 490.000 639.329 486.627 614.547 483.913 598.000 C 474.897 543.023 462.312 503.222 446.372 479.264 C 439.999 469.687 428.730 457.848 421.923 453.579 L 417.346 450.709 423.423 444.498 C 430.809 436.949 435.292 429.642 439.573 418.176 C 445.624 401.969 447.162 391.619 448.293 359.500 C 449.767 317.635 449.656 307.994 447.567 296.500 C 438.256 245.250 403.377 209.305 353.275 199.326 C 341.185 196.918 314.837 196.936 302.769 199.360 C 277.782 204.380 255.785 215.975 239.000 232.976 C 221.134 251.073 211.204 271.606 208.053 296.974 C 207.474 301.634 207.000 305.564 207.000 305.707 C 207.000 305.850 204.809 307.077 202.130 308.434 C 196.302 311.387 192.560 315.587 189.155 322.995 C 187.108 327.447 186.547 330.484 186.196 339.007 C 185.695 351.168 186.837 356.756 193.142 373.000 C 196.920 382.732 197.274 384.495 197.978 397.102 C 198.949 414.466 201.371 422.424 207.575 428.627 C 209.942 430.995 213.031 433.221 214.439 433.574 C 215.848 433.928 216.977 434.506 216.948 434.858 C 216.920 435.211 212.987 438.200 208.208 441.500 C 190.614 453.650 174.482 472.708 165.040 492.500 C 152.850 518.053 144.383 562.682 139.523 627.000 C 137.338 655.922 135.855 669.257 134.929 668.313 C 134.491 667.866 132.493 663.000 130.490 657.500 C 117.708 622.407 113.284 605.486 109.048 575.500 C 104.381 542.464 103.656 531.463 104.307 503.608 C 105.577 449.352 116.196 399.168 136.531 351.318 C 141.668 339.231 159.304 305.376 167.437 291.990 C 189.504 255.670 224.624 216.944 264.000 185.514 C 275.094 176.659 300.583 159.866 314.602 152.176 C 361.922 126.219 419.096 108.967 474.000 104.079 C 480.875 103.467 488.300 102.791 490.500 102.577 C 499.330 101.718 544.366 103.032 557.500 104.533 M 338.789 212.060 C 367.478 215.193 388.933 225.465 407.172 244.799 C 423.629 262.245 434.273 285.147 435.592 305.948 C 435.890 310.652 435.689 331.150 435.144 351.500 C 434.228 385.732 433.962 389.318 431.589 399.430 C 422.801 436.870 395.750 459.373 353.768 464.167 C 331.335 466.729 308.927 461.201 285.000 447.205 C 271.566 439.346 257.019 424.751 251.093 413.187 C 248.750 408.614 246.190 404.626 245.404 404.325 C 243.602 403.633 241.002 405.726 240.994 407.872 C 240.981 411.929 238.514 417.686 235.497 420.703 C 231.441 424.759 226.571 425.088 219.985 421.750 C 212.996 418.208 211.834 415.218 210.855 398.277 C 210.134 385.801 209.577 382.552 206.889 375.132 C 198.178 351.090 198.043 350.608 198.021 343.432 C 197.980 329.646 202.986 320.248 211.515 318.101 C 218.441 316.356 222.999 317.991 229.509 324.553 C 235.225 330.315 236.891 330.966 239.429 328.429 C 241.504 326.353 241.413 324.857 238.887 319.483 C 236.469 314.339 232.803 310.948 225.857 307.428 C 220.297 304.610 220.215 304.265 222.409 292.838 C 225.974 274.271 235.403 257.743 251.606 241.656 C 268.684 224.701 288.297 215.255 313.000 212.087 C 322.450 210.875 327.885 210.870 338.789 212.060 M 623.042 289.042 C 632.509 298.509 653.721 307.451 657.087 303.395 C 658.344 301.880 658.027 301.266 652.410 294.351 C 648.335 289.334 644.124 279.543 645.465 278.202 C 645.832 277.834 647.680 279.396 649.571 281.673 C 656.890 290.483 670.693 297.000 682.036 297.000 C 687.384 297.000 688.068 297.215 687.593 298.750 C 685.947 304.067 685.068 319.427 686.024 326.168 C 687.626 337.465 694.079 349.564 700.270 352.877 C 702.500 354.070 702.770 354.980 703.359 363.271 C 704.581 380.490 708.152 381.335 721.409 367.541 C 731.734 356.797 737.304 353.594 745.526 353.670 C 751.532 353.726 755.616 355.660 759.806 360.432 C 764.037 365.251 765.288 370.136 764.839 380.087 C 764.549 386.497 763.842 389.810 761.869 394.000 C 755.988 406.491 745.020 414.417 733.538 414.471 C 726.376 414.505 725.113 415.141 725.736 418.397 C 727.439 427.307 741.940 428.350 753.968 420.429 C 756.832 418.543 759.300 417.000 759.453 417.000 C 759.607 417.000 760.684 419.610 761.846 422.799 C 764.577 430.289 769.086 437.042 772.827 439.245 C 775.400 440.759 775.866 440.792 776.364 439.495 C 777.310 437.029 778.718 437.806 778.639 440.750 C 778.598 442.263 778.899 444.453 779.307 445.617 C 779.919 447.361 778.856 448.882 773.275 454.249 C 763.346 463.798 720.116 502.959 715.303 506.765 L 711.175 510.030 704.500 502.265 C 700.829 497.994 696.701 492.594 695.326 490.264 L 692.827 486.029 696.413 482.646 C 699.974 479.289 700.770 476.764 699.100 474.127 C 697.960 472.328 693.571 473.015 684.078 476.480 C 668.886 482.025 641.344 484.842 633.671 481.636 C 629.708 479.980 625.350 474.981 622.914 469.299 C 619.952 462.388 620.050 461.893 624.660 460.511 C 633.888 457.745 640.385 449.625 640.385 440.856 C 640.385 436.990 639.787 435.301 637.347 432.272 C 632.009 425.642 627.962 424.037 616.500 424.003 C 611.000 423.986 605.428 423.686 604.119 423.335 C 601.796 422.714 601.753 422.508 602.382 414.966 C 602.737 410.714 602.742 406.490 602.392 405.580 C 601.612 403.547 597.387 401.298 590.622 399.314 C 585.632 397.851 581.000 394.651 581.000 392.667 C 581.000 392.125 585.451 387.107 590.890 381.516 C 596.330 375.925 601.837 369.360 603.129 366.925 C 605.287 362.861 605.442 361.603 605.028 351.500 C 604.004 326.508 604.554 315.040 607.197 306.289 C 609.529 298.568 609.598 297.703 608.344 291.789 C 607.305 286.885 607.253 283.848 608.107 278.000 C 608.710 273.875 609.411 270.159 609.665 269.743 C 609.919 269.326 611.736 272.201 613.702 276.131 C 615.893 280.510 619.509 285.509 623.042 289.042 M 368.772 483.689 C 360.731 494.216 354.517 506.195 350.712 518.500 C 347.357 529.351 347.442 534.359 350.996 535.289 C 353.671 535.988 354.607 534.539 358.040 524.381 C 364.535 505.166 377.806 484.271 385.135 481.720 C 387.238 480.988 391.000 483.609 391.000 485.807 C 391.000 486.738 389.491 488.704 387.647 490.176 C 385.802 491.647 382.558 495.465 380.438 498.659 C 376.181 505.073 364.537 531.618 363.458 537.370 C 362.661 541.621 364.111 544.000 367.500 544.000 C 370.316 544.000 371.097 542.979 374.009 535.500 C 383.156 512.001 389.553 499.594 393.104 498.467 C 395.888 497.583 400.000 500.506 400.000 503.368 C 400.000 504.645 399.134 506.473 398.076 507.431 C 395.879 509.420 391.642 517.938 388.851 525.981 C 387.805 528.995 385.173 540.920 383.003 552.481 C 380.833 564.041 378.101 576.410 376.933 579.967 C 370.542 599.429 359.437 611.526 343.010 616.918 C 332.795 620.272 333.000 620.409 332.997 610.250 C 332.993 598.440 331.204 584.582 328.898 578.500 C 326.810 572.994 326.962 571.194 331.127 552.000 C 335.457 532.040 342.585 513.201 350.390 501.079 C 352.720 497.460 355.797 492.475 357.228 490.000 C 360.546 484.262 365.869 479.139 369.594 478.100 C 371.192 477.655 372.660 477.422 372.856 477.584 C 373.051 477.745 371.214 480.493 368.772 483.689 M 519.054 469.823 C 521.499 471.375 526.921 476.438 531.101 481.073 C 537.419 488.076 542.817 494.647 561.051 517.521 C 561.508 518.094 560.488 521.387 558.726 525.021 C 555.981 530.688 555.582 532.565 555.544 540.000 C 555.466 555.116 557.222 559.000 564.133 559.000 L 568.123 559.000 567.311 554.250 C 566.865 551.638 566.500 545.409 566.500 540.410 C 566.500 531.931 566.714 530.975 569.685 526.198 L 572.870 521.077 571.794 508.218 C 570.906 497.608 570.963 494.850 572.117 492.442 C 575.569 485.239 579.454 489.622 581.631 503.176 C 582.454 508.304 584.717 518.575 586.660 526.000 C 590.097 539.140 590.178 539.881 589.699 553.778 L 589.206 568.055 592.103 569.553 C 593.696 570.377 594.991 571.377 594.980 571.776 C 594.969 572.174 592.589 575.421 589.691 578.990 C 584.341 585.579 576.230 592.027 570.995 593.852 C 568.358 594.771 567.953 594.586 566.234 591.678 C 564.899 589.420 562.640 587.806 558.428 586.100 C 541.787 579.363 530.842 568.614 521.876 550.209 C 517.393 541.006 512.798 533.817 503.587 521.596 C 496.822 512.620 490.988 504.088 490.624 502.638 C 489.769 499.233 490.839 495.000 492.553 495.000 C 495.650 495.000 520.264 525.520 521.000 530.272 C 521.786 535.347 524.548 534.902 533.271 528.295 C 537.479 525.108 542.065 521.691 543.461 520.703 C 550.240 515.906 543.812 504.654 521.797 482.778 C 515.309 476.331 510.000 470.443 510.000 469.694 C 510.000 466.105 513.272 466.151 519.054 469.823 M 255.417 438.268 C 259.849 443.415 263.136 448.475 265.163 453.268 C 269.025 462.397 278.998 477.610 286.482 485.788 C 289.648 489.247 295.896 494.928 300.369 498.413 C 308.636 504.855 325.357 515.000 327.708 515.000 C 328.419 515.000 328.995 515.338 328.989 515.750 C 328.971 516.994 322.330 537.003 321.739 537.594 C 320.873 538.460 301.127 528.257 294.500 523.519 C 277.519 511.379 256.716 484.987 246.559 462.700 C 242.599 454.010 237.973 439.856 238.061 436.698 C 238.142 433.779 246.000 427.762 247.615 429.382 C 248.228 429.997 251.739 433.995 255.417 438.268 M 793.183 460.067 C 794.109 461.955 795.986 465.930 797.355 468.901 L 799.843 474.301 793.913 481.346 C 785.672 491.136 768.958 514.819 758.518 531.500 C 753.698 539.200 749.245 546.049 748.622 546.719 C 747.752 547.657 746.375 546.589 742.663 542.097 C 740.008 538.884 733.823 532.304 728.918 527.474 C 724.013 522.645 720.030 518.425 720.066 518.097 C 720.102 517.769 724.533 513.762 729.913 509.194 C 735.294 504.625 750.902 490.815 764.598 478.504 C 778.294 466.193 789.950 456.236 790.500 456.378 C 791.050 456.519 792.257 458.180 793.183 460.067 M 406.967 536.454 C 407.479 541.429 408.626 555.175 409.517 567.000 C 410.408 578.825 411.614 590.975 412.197 594.000 C 413.195 599.175 413.324 599.352 414.375 597.000 C 415.625 594.201 415.629 594.258 415.205 611.136 L 415.000 619.272 410.640 618.674 C 402.608 617.573 394.885 613.983 390.059 609.107 C 383.416 602.394 382.329 599.876 383.839 594.703 C 386.865 584.338 390.985 566.283 393.470 552.500 C 396.767 534.218 398.537 527.544 401.269 523.090 L 403.361 519.680 404.699 523.544 C 405.435 525.670 406.455 531.479 406.967 536.454 M 288.974 464.487 C 305.845 473.036 319.424 476.365 337.748 476.443 C 345.034 476.475 350.884 476.725 350.748 477.000 C 350.611 477.275 348.784 480.200 346.687 483.500 C 344.589 486.800 340.983 492.964 338.671 497.197 L 334.469 504.895 325.236 500.507 C 314.444 495.378 306.751 489.713 298.464 480.792 C 291.843 473.664 282.534 462.000 283.467 462.000 C 283.797 462.000 286.275 463.119 288.974 464.487 M 507.724 483.847 C 516.113 491.087 520.910 496.283 528.439 506.289 L 534.300 514.077 531.463 517.039 C 529.903 518.667 528.282 520.000 527.862 520.000 C 527.442 520.000 523.183 514.938 518.397 508.750 C 513.611 502.563 507.712 495.353 505.288 492.729 C 500.616 487.671 497.526 481.679 498.406 479.383 C 499.287 477.089 500.649 477.742 507.724 483.847 "/></g>
<g fill="#0D0F0CFF" stroke="#0D0F0CFF">
<path d="M 431.477 668.923 C 406.722 672.882 385.954 688.142 374.632 710.693 C 370.688 718.547 367.150 731.939 366.431 741.734 C 363.961 775.376 382.145 804.375 412.024 814.441 C 423.299 818.240 444.345 819.222 456.649 816.524 C 471.519 813.264 488.082 803.651 496.828 793.206 C 512.747 774.192 518.729 746.092 512.402 720.051 C 506.344 695.117 487.257 676.435 461.818 670.538 C 453.906 668.704 438.103 667.863 431.477 668.923 M 456.172 704.895 C 466.742 709.990 473.071 720.130 475.025 735.101 C 477.878 756.952 470.228 775.321 455.203 782.700 C 450.168 785.172 448.386 785.499 440.000 785.495 C 431.641 785.491 429.899 785.171 425.500 782.832 C 419.528 779.656 413.994 774.064 411.102 768.281 C 404.367 754.819 404.486 732.841 411.368 719.261 C 414.432 713.214 422.536 705.706 428.275 703.598 C 434.699 701.239 450.070 701.953 456.172 704.895 "/></g>
<g fill="#0D0F0CFF" stroke="#0D0F0CFF">
<path d="M 609.645 667.520 C 600.539 669.824 590.271 675.767 582.250 683.376 L 575.000 690.254 575.000 681.684 C 575.000 669.924 575.131 670.000 554.912 670.000 C 540.601 670.000 539.045 670.176 536.635 672.073 L 534.000 674.145 534.000 743.500 L 534.000 812.855 536.635 814.927 C 539.056 816.832 540.594 817.000 555.563 817.000 C 569.043 817.000 572.129 816.729 573.429 815.429 C 574.813 814.044 575.000 808.176 575.000 766.027 L 575.000 718.198 579.498 713.764 C 588.042 705.340 600.222 701.270 608.612 704.035 C 614.324 705.917 617.464 708.612 620.655 714.368 L 623.500 719.500 623.764 765.843 C 623.929 794.744 624.410 812.898 625.043 814.081 C 626.518 816.837 629.114 817.188 645.338 816.826 C 656.952 816.567 660.254 816.179 661.500 814.931 C 662.884 813.545 663.060 807.238 663.008 760.931 C 662.944 703.458 662.688 700.342 657.040 688.273 C 653.052 679.750 645.028 671.911 637.297 668.985 C 629.826 666.158 617.592 665.510 609.645 667.520 "/></g>
<g fill="#0D0F0CFF" stroke="#0D0F0CFF">
<path d="M 288.182 633.492 C 285.808 634.850 281.533 637.932 278.682 640.341 C 275.832 642.750 268.775 648.124 263.000 652.283 C 257.225 656.441 251.263 660.975 249.750 662.358 L 247.000 664.872 247.000 678.936 C 247.000 691.667 247.190 693.190 249.000 695.000 C 250.100 696.100 251.826 697.000 252.835 697.000 C 254.559 697.000 261.905 692.801 277.000 683.186 L 283.500 679.045 283.759 730.184 C 283.985 774.730 283.821 781.625 282.486 783.662 C 281.062 785.835 280.298 786.000 271.668 786.000 C 258.422 786.000 258.500 785.911 258.500 801.008 C 258.500 818.570 254.022 817.000 304.111 817.000 C 353.573 817.000 349.000 818.614 349.000 801.155 C 349.000 786.171 348.862 786.000 336.744 786.000 C 322.679 786.000 324.000 794.099 324.000 707.865 C 324.000 636.333 323.963 634.963 322.000 633.000 C 320.193 631.193 318.676 631.001 306.250 631.012 C 293.475 631.023 292.194 631.199 288.182 633.492 "/></g>
<g fill="#0D0F0CFF" stroke="#0D0F0CFF">
<path d="M 723.037 631.000 C 721.910 631.275 715.324 636.423 708.402 642.440 C 701.480 648.457 692.821 655.437 689.158 657.951 C 680.711 663.751 680.129 665.384 680.056 683.509 C 679.979 702.753 679.592 702.569 697.919 692.012 C 705.568 687.605 712.091 684.000 712.413 684.000 C 712.736 684.000 713.000 713.025 713.000 748.500 C 713.000 811.667 713.041 813.041 715.000 815.000 C 716.828 816.828 718.333 817.000 732.545 817.000 C 747.717 817.000 748.150 816.941 750.545 814.545 L 753.000 812.091 753.000 725.513 C 753.000 631.900 753.045 632.712 747.816 631.562 C 744.513 630.835 725.481 630.404 723.037 631.000 "/></g>
<g fill="#0D0F0CFF" stroke="#0D0F0CFF">
<path d="M 788.481 551.615 C 785.464 554.870 782.670 562.226 780.314 573.117 C 778.678 580.677 778.500 587.254 778.500 640.085 L 778.500 698.670 774.500 704.585 L 770.500 710.500 770.500 720.732 L 770.500 730.963 776.500 722.471 C 785.610 709.575 789.774 702.302 790.800 697.488 C 791.376 694.789 791.371 677.539 790.787 652.311 C 789.460 595.019 790.539 575.336 795.851 559.923 C 797.292 555.743 797.510 553.864 796.722 552.423 C 794.439 548.247 791.839 547.992 788.481 551.615 "/></g>
<g fill="#0D0F0CFF" stroke="#0D0F0CFF">
<path d="M 407.000 303.062 C 404.525 303.549 399.598 305.422 396.051 307.224 C 384.034 313.329 377.104 325.151 376.251 341.000 C 375.827 348.884 376.091 350.412 379.897 362.088 C 384.849 377.280 385.043 380.801 381.168 385.138 C 378.783 387.808 377.458 388.380 372.773 388.769 C 369.088 389.074 365.473 388.654 362.068 387.522 C 355.786 385.436 353.753 386.009 354.183 389.744 C 354.440 391.974 355.582 393.041 360.174 395.338 C 375.163 402.834 389.291 397.984 392.995 384.071 C 394.513 378.366 393.699 373.052 389.306 360.000 C 384.799 346.611 384.589 339.770 388.424 331.366 C 391.596 324.416 397.936 317.494 403.500 314.905 C 409.038 312.329 417.516 312.407 421.893 315.076 C 426.114 317.649 429.717 316.974 430.603 313.444 C 432.229 306.968 418.296 300.839 407.000 303.062 "/></g>
<g fill="#0D0F0CFF" stroke="#0D0F0CFF">
<path d="M 319.043 302.139 C 309.379 303.740 297.092 310.509 294.829 315.477 C 293.423 318.562 295.313 322.000 298.414 322.000 C 299.703 322.000 303.339 320.446 306.494 318.546 C 313.801 314.146 320.747 312.608 330.641 313.201 C 336.574 313.557 339.807 314.340 343.833 316.395 C 350.471 319.784 353.378 319.563 353.827 315.636 C 354.436 310.316 346.632 304.334 336.201 302.123 C 330.181 300.847 326.814 300.850 319.043 302.139 "/></g>
<g fill="#0D0F0CFF" stroke="#0D0F0CFF">
<path d="M 680.435 575.708 C 678.945 577.198 678.799 578.954 679.292 589.458 C 679.867 601.694 681.210 608.237 686.996 626.987 L 690.054 636.897 693.956 632.663 L 697.859 628.430 694.394 612.965 C 692.489 604.459 690.264 593.070 689.450 587.656 C 688.636 582.242 687.511 576.954 686.950 575.906 C 685.683 573.540 682.694 573.449 680.435 575.708 "/></g>
<g fill="#0D0F0CFF" stroke="#0D0F0CFF">
<path d="M 210.342 336.382 C 207.897 338.485 207.706 339.058 208.710 341.263 C 209.336 342.637 211.579 345.006 213.695 346.526 C 220.466 351.394 220.957 352.606 221.243 365.179 C 221.454 374.480 221.866 377.125 223.550 380.000 C 226.125 384.394 230.143 386.529 232.981 385.010 C 235.445 383.691 235.552 380.943 233.305 376.700 C 232.141 374.504 231.416 369.891 230.993 361.993 C 230.426 351.420 230.100 349.968 226.970 344.096 C 221.811 334.415 215.846 331.648 210.342 336.382 "/></g>
<g fill="#0D0F0CFF" stroke="#0D0F0CFF">
<path d="M 334.200 413.200 C 333.540 413.860 333.000 415.442 333.000 416.715 C 333.000 419.763 337.253 422.336 347.762 425.643 C 354.783 427.853 357.362 428.180 364.923 427.818 C 372.720 427.445 374.760 426.929 381.404 423.645 C 387.038 420.860 389.146 419.268 389.602 417.451 C 391.015 411.821 387.502 410.490 380.351 413.945 C 369.747 419.068 354.861 419.379 344.629 414.690 C 338.141 411.717 335.990 411.410 334.200 413.200 "/></g>
<g fill="#0D0F0CFF" stroke="#0D0F0CFF">
<path d="M 623.684 319.449 C 619.102 321.083 616.000 323.709 616.000 325.955 C 616.000 329.363 618.025 329.976 627.146 329.329 C 637.366 328.604 642.835 330.131 647.517 335.018 C 652.603 340.326 659.045 338.011 657.402 331.465 C 656.539 328.027 648.208 322.481 640.145 319.975 C 632.763 317.681 628.979 317.560 623.684 319.449 "/></g>
<g fill="#0D0F0CFF" stroke="#0D0F0CFF">
<path d="M 303.571 348.571 C 301.396 350.747 301.582 351.736 304.762 354.916 C 311.405 361.559 327.112 364.291 337.720 360.651 C 345.743 357.897 350.367 351.210 346.480 347.983 C 345.224 346.941 343.837 347.291 338.511 349.994 C 332.556 353.017 331.505 353.231 324.754 352.798 C 319.526 352.463 315.935 351.570 312.141 349.664 C 305.932 346.546 305.635 346.508 303.571 348.571 "/></g>
<g fill="#0D0F0CFF" stroke="#0D0F0CFF">
<path d="M 364.110 269.396 C 358.434 272.542 357.252 281.012 361.782 286.083 C 363.923 288.478 365.648 289.319 369.255 289.725 C 373.604 290.215 374.203 289.997 377.473 286.727 C 381.320 282.880 382.092 278.492 379.805 273.472 C 377.563 268.550 369.441 266.441 364.110 269.396 "/></g>
<g fill="#0D0F0CFF" stroke="#0D0F0CFF">
<path d="M 626.609 351.534 C 623.137 355.006 621.970 365.599 624.415 371.452 C 626.307 375.979 629.275 377.543 633.026 375.989 C 637.415 374.171 638.986 367.594 637.368 357.808 C 636.266 351.144 630.413 347.730 626.609 351.534 "/></g>
<g fill="#0D0F0CFF" stroke="#0D0F0CFF">
<path d="M 417.155 349.020 C 412.081 353.249 403.428 353.476 397.418 349.538 C 393.801 347.168 390.573 347.873 390.196 351.116 C 389.792 354.606 393.993 358.095 401.407 360.427 C 410.815 363.386 420.034 360.702 423.503 353.994 C 426.613 347.981 422.382 344.665 417.155 349.020 "/></g>
<g fill="#0D0F0CFF" stroke="#0D0F0CFF">
<path d="M 740.001 367.693 C 733.872 370.822 729.741 375.996 730.204 379.966 C 730.660 383.869 733.994 383.682 739.035 379.470 C 741.424 377.475 745.543 374.745 748.189 373.404 C 750.835 372.063 752.993 370.411 752.985 369.733 C 752.925 364.920 747.198 364.020 740.001 367.693 "/></g>
</svg>
