<?xml version="1.0" standalone="no"?>
<!DOCTYPE svg PUBLIC "-//W3C//DTD SVG 20010904//EN"
 "http://www.w3.org/TR/2001/REC-SVG-20010904/DTD/svg10.dtd">
<svg version="1.0" xmlns="http://www.w3.org/2000/svg"
 width="1024.000000pt" height="1024.000000pt" viewBox="0 0 1024.000000 1024.000000"
 preserveAspectRatio="xMidYMid meet">

<g transform="translate(0.000000,1024.000000) scale(0.100000,-0.100000)"
fill="#000000" stroke="none">
<path d="M4690 9395 c-680 -68 -1330 -295 -1898 -662 -240 -155 -468 -339
-673 -543 -666 -663 -1097 -1531 -1228 -2471 -46 -333 -53 -770 -16 -1079 117
-997 544 -1874 1251 -2572 492 -485 1023 -811 1669 -1024 771 -253 1597 -279
2390 -74 884 228 1620 694 2209 1399 326 391 557 787 727 1248 160 434 254
930 266 1413 13 527 -57 999 -222 1493 -240 718 -720 1420 -1300 1902 -667
554 -1458 882 -2344 970 -187 18 -648 18 -831 0z m660 -175 c667 -40 1348
-251 1913 -594 532 -323 1054 -845 1347 -1351 72 -123 216 -407 272 -535 243
-553 365 -1265 318 -1856 -33 -420 -104 -781 -212 -1079 l-43 -120 -6 280
c-11 457 -60 718 -183 964 -123 249 -332 461 -581 592 -95 51 -97 52 -124 137
-13 42 -73 125 -106 146 -14 9 -25 20 -25 25 0 4 52 79 116 167 63 87 141 200
171 249 149 239 221 485 210 715 -10 201 -69 342 -199 473 -60 60 -92 103
-122 162 -53 105 -194 249 -311 317 -423 246 -940 247 -1447 3 -28 -14 -64
-25 -79 -25 -55 0 -135 -22 -209 -58 -96 -47 -176 -126 -221 -218 -31 -62 -34
-77 -34 -154 0 -76 3 -92 33 -152 18 -36 48 -80 67 -97 l35 -30 -12 -96 c-9
-74 -9 -122 0 -217 18 -182 16 -206 -18 -276 -23 -45 -54 -82 -120 -142 -84
-77 -90 -85 -90 -121 0 -53 52 -110 142 -155 l68 -34 0 -63 c0 -150 22 -169
206 -177 111 -4 135 -8 153 -24 25 -23 26 -37 6 -76 -12 -23 -28 -33 -73 -46
-66 -20 -122 -68 -122 -107 0 -35 54 -174 90 -230 17 -27 48 -57 77 -74 45
-26 56 -28 173 -31 84 -2 166 3 248 16 l124 18 29 -33 c16 -19 29 -39 29 -44
0 -6 -23 -36 -50 -66 -63 -69 -82 -106 -82 -156 1 -28 -8 -51 -32 -85 -53 -74
-93 -162 -161 -351 -78 -220 -118 -319 -128 -320 -4 -1 -69 74 -143 166 -147
181 -178 213 -210 213 -20 0 -22 6 -27 118 -5 99 -15 155 -66 357 -34 134 -69
250 -79 265 -10 14 -33 35 -51 47 -78 53 -187 -25 -200 -142 l-6 -55 -53 67
c-98 125 -296 327 -344 351 -84 42 -173 18 -208 -55 -10 -21 -24 -33 -43 -37
-43 -9 -76 -51 -83 -108 -5 -34 -13 -53 -26 -61 -30 -18 -60 -85 -65 -147 -7
-75 13 -119 114 -245 113 -143 139 -183 187 -293 23 -53 60 -124 83 -157 76
-112 203 -226 311 -280 l53 -26 -26 -30 c-17 -21 -25 -42 -25 -69 0 -33 15
-59 121 -199 l121 -161 74 0 c88 0 90 -10 -19 137 -110 149 -139 193 -134 207
3 6 21 17 41 23 110 34 261 153 326 257 19 31 37 56 40 55 3 0 52 -59 110
-130 58 -72 154 -190 213 -262 60 -73 133 -163 164 -200 59 -74 88 -93 125
-83 69 18 62 39 -63 196 -55 69 -105 134 -110 145 -8 16 3 52 52 170 33 82 81
208 106 280 25 71 64 166 86 209 l41 79 25 -34 c81 -107 128 -138 159 -107 20
20 14 35 -58 155 -43 72 -70 127 -70 144 0 20 13 42 46 76 l46 48 53 -60 53
-59 -21 -41 c-17 -33 -22 -63 -25 -172 -5 -164 1 -200 35 -216 23 -10 28 -8
49 16 22 26 24 37 24 140 0 62 5 130 11 151 l11 39 85 -84 c46 -46 118 -126
160 -176 63 -78 80 -93 104 -93 44 0 96 55 169 177 125 210 301 466 407 592
l29 34 54 -28 c87 -44 167 -102 253 -184 251 -238 384 -557 417 -1001 13 -172
13 -515 0 -738 -11 -192 -10 -186 -118 -377 -211 -372 -499 -734 -806 -1014
-291 -266 -582 -466 -916 -630 -473 -233 -944 -367 -1470 -417 -226 -22 -650
-14 -870 15 -490 67 -849 175 -1291 390 -499 242 -1008 650 -1364 1093 -118
147 -316 439 -419 618 -80 139 -78 100 -36 591 50 583 68 755 100 939 59 336
122 534 223 706 65 110 235 286 351 363 l79 52 28 -81 c36 -109 125 -281 217
-420 88 -135 254 -306 373 -387 72 -49 219 -129 283 -153 26 -10 28 -13 22
-48 -3 -20 -6 -49 -6 -64 0 -27 -2 -28 -48 -28 -26 0 -77 -9 -114 -19 -37 -11
-132 -29 -210 -41 -79 -12 -176 -31 -217 -41 -55 -14 -77 -16 -87 -8 -21 17
-58 103 -104 243 -43 130 -64 166 -99 166 -21 0 -51 -25 -51 -41 0 -6 14 -64
30 -130 33 -128 71 -239 97 -278 9 -14 12 -26 7 -28 -36 -12 -147 -87 -196
-132 -99 -90 -122 -137 -89 -170 35 -35 58 -26 143 54 135 127 320 204 588
245 69 10 163 27 208 37 l84 18 19 -24 c35 -43 51 -120 56 -264 l5 -137 25 0
c40 0 101 -38 130 -81 25 -38 29 -40 62 -34 84 16 206 83 276 151 l40 39 63
-62 c72 -72 154 -115 257 -136 l70 -14 -2 -67 -2 -66 58 0 c69 0 63 -13 81
182 16 162 8 453 -14 528 -8 30 -14 56 -12 58 7 6 131 -39 173 -64 66 -38 103
-28 103 27 0 48 -110 117 -247 155 -52 14 -63 21 -63 38 0 12 -7 80 -14 151
-15 131 -30 192 -66 253 -13 21 -20 52 -20 85 0 57 -25 121 -59 151 -11 11
-21 27 -21 36 0 38 -52 120 -92 144 l-39 23 75 42 c75 41 76 41 108 25 118
-59 242 -183 331 -332 152 -252 261 -672 339 -1309 l23 -183 70 0 71 0 -13
103 c-64 493 -136 839 -238 1137 -107 314 -238 520 -410 646 l-64 47 63 68
c98 106 160 239 208 444 17 73 22 143 29 365 5 151 12 325 15 386 14 252 -63
538 -200 748 -252 387 -725 586 -1216 511 -329 -49 -605 -210 -794 -462 -115
-154 -181 -319 -206 -515 l-12 -96 -40 -18 c-52 -24 -122 -103 -142 -162 -50
-144 -41 -265 36 -472 48 -129 50 -141 58 -275 6 -106 13 -154 30 -199 27 -69
78 -131 126 -148 19 -6 34 -14 34 -18 -1 -3 -38 -30 -83 -60 -172 -114 -346
-319 -438 -514 -131 -280 -208 -702 -264 -1451 -19 -242 -29 -326 -38 -305 -3
8 -33 87 -65 175 -120 324 -160 501 -219 960 -24 193 -24 651 0 850 80 645
224 1083 548 1663 157 281 336 516 589 776 518 531 1082 872 1775 1071 445
127 933 182 1385 155z m-1881 -1106 c402 -62 746 -372 853 -771 23 -88 26
-213 17 -683 -6 -293 -22 -400 -80 -551 -95 -247 -352 -440 -649 -488 -166
-27 -399 -6 -547 49 -268 100 -464 265 -584 490 -16 29 -32 46 -46 48 -22 3
-23 3 -43 -77 -23 -89 -71 -128 -144 -117 -109 17 -136 65 -147 261 -9 155
-12 170 -69 309 -69 170 -76 282 -26 392 32 69 71 94 148 94 56 0 58 -1 122
-61 46 -43 72 -60 87 -57 35 5 45 30 30 78 -17 56 -71 114 -137 145 -63 30
-62 28 -34 164 33 163 120 319 259 464 144 152 294 242 484 292 165 44 307 49
506 19z m2750 -754 c75 -74 183 -134 274 -151 93 -17 100 3 31 87 -25 31 -50
68 -56 83 -12 31 -27 91 -23 91 2 0 30 -26 62 -58 83 -84 170 -124 278 -130
l82 -4 -10 -42 c-6 -22 -10 -95 -10 -161 0 -97 4 -131 21 -177 25 -71 71 -139
116 -173 32 -24 33 -28 39 -114 7 -109 17 -131 59 -131 25 0 46 16 127 98 112
115 155 137 250 130 77 -5 124 -40 158 -115 22 -49 25 -65 21 -141 -5 -103
-37 -179 -104 -248 -64 -65 -129 -94 -213 -94 -60 0 -70 -3 -76 -20 -15 -46
46 -100 114 -100 65 0 112 15 171 55 29 19 53 35 55 35 2 0 10 -24 19 -53 18
-64 67 -139 108 -169 28 -20 32 -20 43 -5 17 24 23 21 18 -7 -3 -13 0 -34 7
-46 9 -16 8 -25 -2 -38 -16 -19 -561 -516 -628 -572 l-47 -40 -65 78 c-36 42
-77 95 -92 118 l-27 41 36 36 c58 58 40 125 -28 98 -151 -58 -277 -88 -423
-98 -173 -11 -227 13 -278 127 -28 63 -29 90 -1 90 29 0 93 39 123 76 35 43
57 112 48 151 -13 51 -53 100 -103 124 -39 20 -65 24 -143 25 -52 1 -105 2
-118 3 -22 1 -22 3 -20 93 l3 92 -33 22 c-18 12 -50 25 -72 29 -42 7 -101 41
-108 63 -2 7 39 57 90 110 162 166 165 176 147 403 -14 173 -6 266 32 376 17
50 18 64 8 107 -12 49 -8 204 6 225 3 7 20 -16 38 -51 18 -38 57 -88 96 -128z
m-3668 -1505 c39 -45 73 -98 94 -147 101 -234 316 -458 558 -579 48 -24 76
-45 73 -52 -3 -7 -19 -56 -36 -109 -36 -111 -22 -107 -152 -42 -171 86 -333
232 -471 424 -92 130 -201 351 -229 464 -18 72 -20 90 -9 94 7 2 28 17 45 33
l31 28 18 -22 c10 -12 45 -53 78 -92z m5361 -187 c8 -13 22 -45 31 -72 9 -27
24 -57 33 -67 15 -17 13 -22 -39 -81 -95 -110 -327 -443 -439 -632 l-28 -46
-37 42 c-20 24 -83 91 -140 149 l-104 105 138 121 c76 66 233 206 348 311 116
105 213 191 216 191 4 1 13 -9 21 -21z m-4874 -132 c101 -36 225 -56 349 -56
l105 0 -26 -42 c-14 -24 -49 -85 -77 -135 -28 -51 -56 -93 -62 -93 -28 0 -198
95 -257 143 -59 48 -240 251 -240 270 0 4 30 -8 68 -27 37 -18 100 -45 140
-60z m2144 14 c54 -36 143 -134 304 -335 l120 -150 -30 -65 c-28 -58 -31 -75
-31 -160 0 -147 16 -180 87 -180 l40 0 -9 53 c-4 28 -8 88 -8 132 0 70 4 87
31 137 l31 56 -5 146 c-5 149 0 176 34 176 25 0 43 -45 59 -145 8 -55 29 -149
47 -210 30 -103 32 -121 32 -273 l1 -164 28 -14 28 -15 -18 -31 c-31 -54 -137
-152 -192 -178 l-53 -24 -26 31 c-15 17 -65 49 -112 71 -154 73 -253 178 -340
357 -42 89 -86 157 -165 260 -127 166 -147 201 -136 240 4 16 12 30 17 32 23
8 281 -312 286 -353 5 -50 35 -42 146 41 98 73 107 84 102 130 -4 50 -173 257
-295 363 -60 51 -76 78 -58 95 13 14 41 6 85 -23z m-1512 -145 c-161 -212
-257 -528 -157 -513 17 2 28 23 59 111 56 162 153 334 225 397 38 34 78 37 96
8 9 -13 0 -28 -48 -80 -43 -46 -72 -92 -111 -173 -127 -271 -141 -345 -64
-345 27 0 31 7 89 153 71 177 117 263 154 290 24 19 27 19 51 3 35 -22 33 -42
-9 -100 -44 -62 -89 -178 -109 -281 -8 -44 -29 -151 -45 -238 -47 -240 -100
-360 -204 -453 -58 -52 -117 -84 -196 -108 -85 -25 -81 -29 -81 83 0 119 -15
236 -40 310 -18 53 -18 54 12 204 36 184 83 330 148 462 101 203 202 335 256
335 21 0 20 -5 -26 -65z m1420 -16 c76 -67 154 -156 213 -244 l27 -39 -27 -28
c-15 -15 -30 -28 -34 -28 -3 0 -50 55 -103 123 -53 67 -116 146 -141 175 -31
37 -45 62 -45 82 0 46 21 38 110 -41z m-1030 -528 c5 -58 17 -200 26 -316 9
-115 20 -227 26 -249 8 -33 11 -36 21 -21 10 13 12 -6 9 -92 -2 -59 -8 -112
-12 -117 -12 -12 -103 10 -161 39 -57 29 -121 91 -139 135 -11 26 -9 40 13
108 27 84 43 153 83 372 35 194 52 258 77 300 l21 34 13 -44 c7 -24 17 -91 23
-149z"/>
<path d="M7887 4749 c-27 -16 -66 -102 -90 -197 -21 -84 -21 -107 -22 -682 -1
-651 3 -603 -60 -696 -23 -33 -25 -46 -25 -142 l0 -105 23 34 c13 19 49 71 80
115 31 45 69 108 84 140 l27 59 -3 555 c-3 595 1 668 45 803 24 73 24 80 9
103 -16 26 -39 30 -68 13z"/>
<path d="M6792 4498 c-15 -15 -16 -182 -1 -264 12 -67 88 -335 98 -346 3 -3
23 13 44 37 l37 44 -35 158 c-19 87 -41 202 -49 256 -8 54 -20 105 -27 113
-14 17 -51 18 -67 2z"/>
<path d="M2907 3936 c-20 -8 -52 -26 -70 -40 -17 -14 -95 -73 -172 -131 -77
-57 -155 -116 -172 -131 l-33 -26 0 -142 c0 -223 15 -230 220 -101 74 47 138
85 143 85 4 0 6 -231 5 -513 -2 -418 -6 -517 -17 -530 -11 -14 -32 -17 -107
-17 -130 0 -134 -4 -134 -150 0 -104 1 -112 25 -135 l24 -25 415 0 415 0 15
22 c12 17 16 50 16 139 0 147 -2 149 -122 149 -69 0 -88 3 -101 18 -15 16 -17
89 -19 755 l-3 736 -23 23 c-21 21 -33 23 -145 25 -85 2 -134 -1 -160 -11z"/>
<path d="M7206 3935 c-16 -8 -63 -46 -105 -83 -107 -95 -178 -153 -234 -192
-69 -46 -77 -71 -77 -244 0 -196 -5 -193 179 -88 l139 80 6 -37 c3 -20 6 -311
6 -647 0 -579 1 -612 18 -627 16 -14 44 -17 180 -17 l161 0 20 26 c21 27 21
32 21 901 0 607 -3 880 -11 895 -18 34 -70 48 -176 48 -68 0 -107 -5 -127 -15z"/>
<path d="M6080 3575 c-106 -30 -243 -113 -304 -185 -14 -17 -27 -30 -30 -30
-3 0 -6 36 -6 79 0 111 0 111 -205 111 -156 0 -162 -1 -183 -23 l-22 -23 0
-696 0 -696 25 -16 c20 -13 54 -16 185 -16 92 0 170 4 181 10 18 10 19 26 19
494 l0 483 50 47 c120 112 264 134 356 54 71 -63 68 -41 74 -569 5 -451 6
-478 24 -498 18 -20 29 -21 176 -21 140 0 160 2 181 19 l24 19 0 524 c0 459
-2 532 -18 598 -34 151 -110 256 -224 312 -57 28 -78 33 -157 35 -59 2 -111
-3 -146 -12z"/>
<path d="M4285 3560 c-237 -43 -427 -184 -540 -401 -69 -134 -89 -218 -90
-379 0 -160 11 -211 72 -340 87 -181 253 -310 458 -356 103 -23 284 -23 378 0
280 67 476 256 553 537 25 89 26 337 1 429 -51 193 -183 359 -347 438 -47 22
-112 48 -145 56 -72 20 -270 29 -340 16z m262 -359 c69 -30 134 -101 163 -177
29 -74 39 -256 20 -343 -27 -123 -94 -212 -192 -257 -54 -25 -75 -29 -148 -29
-73 0 -93 4 -142 28 -142 70 -218 253 -191 460 25 184 102 292 243 338 48 16
191 4 247 -20z"/>
<path d="M3609 7539 c-23 -25 -29 -40 -29 -76 0 -38 5 -50 34 -79 38 -38 85
-45 135 -20 58 31 71 128 22 177 -25 25 -37 29 -81 29 -45 0 -56 -4 -81 -31z"/>
<path d="M3175 7230 c-153 -31 -284 -137 -233 -188 20 -20 50 -14 137 31 82
41 85 42 186 42 95 0 106 -2 165 -32 34 -18 67 -33 71 -33 5 0 16 11 25 25 15
23 15 27 -1 52 -59 90 -203 132 -350 103z"/>
<path d="M4040 7216 c-155 -45 -251 -151 -286 -316 -18 -88 -8 -161 42 -298
27 -75 34 -107 31 -142 -9 -79 -81 -115 -182 -91 -102 24 -102 24 -115 2 -36
-67 179 -141 283 -97 44 18 94 77 108 128 15 58 7 114 -37 253 -31 100 -36
127 -32 184 6 77 31 133 90 196 75 82 175 107 258 65 45 -23 71 -25 88 -8 46
46 -43 125 -152 134 -28 2 -71 -2 -96 -10z"/>
<path d="M2090 6890 c-11 -11 -20 -28 -20 -37 0 -10 29 -45 65 -78 l65 -61 0
-105 c0 -89 3 -112 23 -149 26 -53 68 -81 94 -64 26 16 27 57 4 103 -17 32
-21 59 -21 130 0 110 -24 184 -79 242 -31 31 -45 39 -74 39 -24 0 -44 -7 -57
-20z"/>
<path d="M4167 6763 c-53 -37 -130 -43 -191 -13 -25 12 -54 20 -63 18 -28 -5
-28 -52 -2 -77 30 -28 121 -61 167 -61 99 1 199 99 150 148 -16 16 -18 16 -61
-15z"/>
<path d="M3020 6765 c-31 -38 38 -100 144 -131 103 -29 230 -3 281 58 27 32
32 57 13 76 -18 18 -34 15 -80 -15 -37 -25 -51 -28 -122 -28 -67 0 -91 5 -140
28 -67 31 -79 33 -96 12z"/>
<path d="M3805 6118 c-117 -62 -298 -62 -391 -1 -12 8 -38 13 -56 11 -29 -3
-33 -7 -36 -34 -4 -41 27 -64 134 -100 138 -46 287 -31 395 41 45 29 55 59 28
86 -23 23 -24 23 -74 -3z"/>
<path d="M6202 7049 c-51 -26 -67 -50 -51 -80 10 -20 16 -21 98 -14 107 8 152
-3 216 -56 54 -44 53 -44 83 -23 52 36 15 97 -93 150 -97 48 -188 56 -253 23z"/>
<path d="M6244 6723 c-15 -22 -19 -46 -19 -110 0 -72 3 -84 24 -107 61 -64
121 -11 121 106 0 88 -23 132 -71 136 -30 3 -39 -2 -55 -25z"/>
<path d="M7395 6581 c-59 -26 -107 -85 -103 -124 4 -46 37 -47 87 -5 22 18 61
45 88 59 52 28 65 55 37 76 -24 18 -61 16 -109 -6z"/>
</g>
</svg>
